<?xml version="1.0" encoding="UTF-8"?>
<svg width="512px" height="512px" viewBox="0 0 512 512" version="1.1" xmlns="http://www.w3.org/2000/svg" xmlns:xlink="http://www.w3.org/1999/xlink">
    <!-- Generator: Sketch 50.2 (55047) - http://www.bohemiancoding.com/sketch -->
    <title>icon</title>
    <desc>Created with Sketch.</desc>
    <defs></defs>
    <g id="icon" stroke="none" stroke-width="1" fill="none" fill-rule="evenodd">
        <g>
            <circle id="Oval-Copy" fill="#2F84ED" cx="256" cy="256" r="256"></circle>
            <g id="Group" transform="translate(115.941176, 154.117647)" fill="#FFFFFF" fill-rule="nonzero">
                <polygon id="Shape" points="0.764705882 0.752941176 30.1294118 0.752941176 52.7176471 42.1647059 74.5529412 0.752941176 102.411765 0.752941176 65.5176471 67.0117647 65.5176471 102.4 38.4117647 102.4 38.4117647 67.7647059"></polygon>
                <path d="M94.1294118,51.9529412 C94.1294118,21.0823529 118.976471,0 147.588235,0 C176.2,0 201.047059,21.8352941 201.047059,51.9529412 C201.047059,82.8235294 176.2,104.658824 147.588235,104.658824 C118.976471,103.905882 94.1294118,82.8235294 94.1294118,51.9529412 M173.188235,51.9529412 C173.188235,36.1411765 163.4,23.3411765 146.835294,23.3411765 C130.270588,23.3411765 120.482353,36.1411765 120.482353,51.9529412 C120.482353,67.7647059 130.270588,80.5647059 146.835294,80.5647059 C164.152941,80.5647059 173.188235,67.7647059 173.188235,51.9529412" id="Shape"></path>
                <polygon id="Shape" points="225.894118 23.3411765 199.541176 23.3411765 199.541176 0.752941176 279.352941 0.752941176 279.352941 23.3411765 253 23.3411765 253 102.4 225.894118 102.4"></polygon>
                <path d="M35.4,213.835294 L9.04705882,213.835294 L9.04705882,112.188235 L46.6941176,112.188235 C73.8,112.188235 88.8588235,129.505882 88.8588235,152.094118 C88.8588235,174.682353 73.8,192 46.6941176,192 L35.4,192 L35.4,213.835294 Z M45.1882353,168.658824 C57.2352941,168.658824 61.7529412,161.882353 61.7529412,152.094118 C61.7529412,142.305882 57.2352941,134.776471 45.1882353,134.776471 L35.4,134.776471 L35.4,168.658824 L45.1882353,168.658824 Z" id="Shape"></path>
                <path d="M93.3764706,163.388235 C93.3764706,132.517647 118.223529,111.435294 146.835294,111.435294 C175.447059,111.435294 200.294118,133.270588 200.294118,163.388235 C200.294118,194.258824 175.447059,216.094118 146.835294,216.094118 C118.223529,215.341176 93.3764706,194.258824 93.3764706,163.388235 M173.188235,163.388235 C173.188235,147.576471 163.4,134.776471 146.835294,134.776471 C130.270588,134.776471 120.482353,147.576471 120.482353,163.388235 C120.482353,179.2 130.270588,192 146.835294,192 C163.4,192 173.188235,179.2 173.188235,163.388235" id="Shape"></path>
                <path d="M200.294118,201.035294 C200.294118,192 207.070588,185.976471 214.6,185.976471 C222.129412,185.976471 228.905882,192 228.905882,201.035294 C228.905882,210.070588 222.129412,216.094118 214.6,216.094118 C207.070588,215.341176 200.294118,209.317647 200.294118,201.035294" id="Shape"></path>
            </g>
        </g>
    </g>
</svg>